<?xml version="1.0" standalone="no"?>
<!DOCTYPE svg PUBLIC "-//W3C//DTD SVG 20010904//EN"
 "http://www.w3.org/TR/2001/REC-SVG-20010904/DTD/svg10.dtd">
<svg version="1.0" xmlns="http://www.w3.org/2000/svg"
 width="214.000000pt" height="213.000000pt" viewBox="0 0 214.000000 213.000000"
 preserveAspectRatio="xMidYMid meet">

<g transform="translate(0.000000,213.000000) scale(0.100000,-0.100000)"
fill="#fff" stroke="none">
<path d="M900 2115 c-418 -71 -748 -370 -862 -782 -19 -66 -22 -106 -22 -263
-1 -202 7 -250 66 -400 94 -238 309 -465 541 -570 417 -189 903 -95 1218 236
314 331 381 824 165 1230 -212 398 -666 624 -1106 549z m330 -139 c295 -53
539 -239 670 -511 76 -155 85 -200 84 -405 0 -165 -2 -180 -28 -260 -116 -350
-382 -584 -733 -645 -470 -82 -927 216 -1050 683 -31 120 -35 304 -10 419 110
489 580 806 1067 719z"/>
<path d="M865 1686 c-147 -57 -252 -129 -393 -268 -108 -107 -200 -237 -231
-329 -26 -75 -40 -217 -19 -185 7 11 40 60 72 110 70 105 157 195 219 225 54
26 72 26 97 1 19 -19 20 -33 20 -283 0 -302 -2 -312 -70 -305 -34 3 -37 1 -29
-14 16 -30 118 -106 182 -137 66 -32 182 -66 257 -76 l45 -6 79 80 79 80 69
-60 c38 -32 72 -59 76 -59 17 0 145 105 193 158 78 86 179 230 179 257 0 4
-19 -10 -42 -31 -86 -79 -163 -113 -210 -93 l-28 11 0 314 c0 361 -11 315 114
473 36 46 64 86 62 89 -8 8 -120 -30 -185 -63 -37 -18 -99 -59 -140 -90 -72
-57 -73 -57 -111 -46 -20 6 -47 11 -58 11 -20 0 -20 -3 11 -46 l32 -46 3 -290
c3 -328 11 -298 -83 -343 -64 -32 -96 -31 -134 1 l-31 26 0 330 c0 322 -1 330
-19 325 -34 -8 -59 19 -66 72 -9 64 15 120 79 184 26 26 46 47 44 47 -2 -1
-30 -11 -63 -24z"/>
<path d="M1740 1560 c-8 -5 -29 -10 -45 -10 -27 0 -38 -11 -97 -93 -36 -51
-69 -107 -72 -125 l-8 -32 71 0 71 0 0 -40 c0 -40 0 -40 39 -40 l39 0 -5 40
c-5 35 -3 40 15 40 12 0 23 9 27 20 8 24 -1 40 -21 40 -11 0 -14 8 -9 33 9 57
25 162 25 170 0 10 -12 9 -30 -3z m-60 -142 c-5 -51 -6 -53 -37 -56 -18 -2
-33 -1 -33 2 0 9 64 106 70 106 3 0 3 -24 0 -52z"/>
</g>
</svg>
