<?xml version="1.0" standalone="no"?>
<!DOCTYPE svg PUBLIC "-//W3C//DTD SVG 20010904//EN"
 "http://www.w3.org/TR/2001/REC-SVG-20010904/DTD/svg10.dtd">
<svg version="1.0" xmlns="http://www.w3.org/2000/svg"
 width="512.000000pt" height="512.000000pt" viewBox="0 0 512.000000 512.000000"
 preserveAspectRatio="xMidYMid meet">

<g transform="translate(0.000000,512.000000) scale(0.100000,-0.100000)"
fill="#fff" stroke="none">
<path d="M2940 4791 c-136 -44 -285 -227 -309 -381 -24 -151 51 -291 192 -355
154 -71 563 -46 666 40 129 109 -91 564 -326 672 -61 29 -172 41 -223 24z"/>
<path d="M2155 3864 c-317 -32 -558 -115 -810 -281 -215 -142 -458 -384 -664
-663 -142 -191 -146 -263 -12 -244 137 18 502 162 563 221 23 22 28 35 28 77
1 170 37 263 140 359 194 183 447 279 657 249 161 -23 265 -73 576 -281 106
-70 220 -144 255 -165 34 -21 62 -40 62 -44 -1 -4 -26 -27 -57 -52 -80 -63
-380 -366 -482 -486 -47 -55 -115 -141 -151 -191 l-65 -91 -85 -22 c-210 -55
-429 -144 -724 -293 -425 -214 -710 -405 -944 -631 -230 -222 -445 -567 -430
-692 2 -22 12 -33 43 -49 56 -27 215 -33 324 -11 268 55 628 234 945 473 242
183 377 308 607 565 188 210 142 191 489 192 521 0 1195 -121 1528 -275 148
-68 262 -164 303 -253 26 -57 24 -115 -8 -208 l-27 -79 26 -52 c14 -29 50 -78
79 -111 109 -120 363 -316 551 -425 109 -62 168 -85 208 -79 24 3 25 5 24 88
-2 102 -23 164 -121 350 -215 411 -579 823 -943 1067 -206 138 -504 282 -795
383 -237 82 -330 101 -537 107 -98 3 -178 10 -178 15 0 29 427 510 541 608
l59 52 84 -36 c140 -60 230 -79 360 -74 130 5 201 26 318 94 155 91 395 321
462 444 37 69 44 134 19 191 -55 123 -156 180 -321 180 -88 0 -154 -19 -276
-82 -73 -37 -208 -123 -267 -170 l-25 -20 -130 56 c-370 162 -601 240 -799
271 -94 14 -331 25 -400 18z m2059 -268 c95 -39 45 -116 -102 -158 -92 -27
-318 -29 -376 -5 -33 15 -37 19 -25 33 14 18 83 54 161 85 136 55 275 73 342
45z m-2454 -1854 c0 -4 -46 -59 -103 -122 -218 -242 -502 -478 -798 -662 -255
-159 -425 -217 -509 -173 -35 18 -45 49 -36 113 11 86 61 169 160 267 118 117
264 214 491 325 210 103 381 167 590 220 149 39 205 47 205 32z"/>
</g>
</svg>
